<?xml version="1.0" encoding="utf-8"?>
<!-- Generator: Adobe Illustrator 28.3.0, SVG Export Plug-In . SVG Version: 6.00 Build 0)  -->
<svg version="1.1" id="Layer_1" xmlns:serif="http://www.serif.com/"
	 xmlns="http://www.w3.org/2000/svg" xmlns:xlink="http://www.w3.org/1999/xlink" x="0px" y="0px" viewBox="0 0 1024 1024"
	 style="enable-background:new 0 0 1024 1024;" xml:space="preserve">
<style type="text/css">
	.st0{fill-rule:evenodd;clip-rule:evenodd;fill:#A0A4AA;stroke:#C6C6C6;stroke-miterlimit:10;}
	.st1{fill:none;stroke:#D1D1D1;stroke-width:40;stroke-miterlimit:10;}
	.st2{fill-rule:evenodd;clip-rule:evenodd;stroke:#D1D1D1;stroke-width:30;stroke-miterlimit:10;}
	.st3{fill-rule:evenodd;clip-rule:evenodd;fill:#243466;stroke:#D1D1D1;stroke-width:26;stroke-miterlimit:10;}
	.st4{fill-rule:evenodd;clip-rule:evenodd;stroke:#C6C6C6;stroke-miterlimit:10;}
	.st5{fill:none;stroke:#D1D1D1;stroke-width:23;stroke-miterlimit:10;}
</style>
<g>
	<g>
		<g>
			<g>
				<g>
					<circle class="st0" cx="511.8" cy="492.9" r="430.1"/>
					<circle class="st1" cx="511.8" cy="492.9" r="430.1"/>
				</g>
				<g>
					<g>
						<path class="st2" d="M773.6,462.8c0-140-117.2-251.8-261.6-251.8c-144.5,0-261.7,112.8-261.7,251.8
							c0,30.6,25.8,55.4,57.6,55.4c31.7,0,57.5-24.8,57.5-55.4c0-77.8,65.7-141,146.6-141c80.7,0,146.5,62.6,146.5,141
							c0,78.3-47.7,97.6-89,117.6l-0.2-112.2c0-29.5-25.8-53.4-57.6-53.4s-57.6,24.1-57.6,53.5l0.4,258.6c0,1.1,0.1,2.2,0.2,3.3
							c-0.2,3.4-0.3,6.7-0.3,10.3c0,30.6,25.8,55.4,57.6,55.4c31.7,0,57.5-24.8,57.5-55.4c0-26.7,13.8-39.5,30.7-49.7
							c12.9-7.8,27.1-14.5,41.2-21.9C708,634.4,773.6,591,773.6,462.8z"/>
					</g>
					<g>
						<path class="st3" d="M512,29C254.9,29,46.2,237.5,46.2,494.2c0,172.1,93.7,322.5,232.7,403c27.6,15.9,62.8,6.5,78.8-21
							c15.9-27.4,6.5-62.7-20.9-78.6C231.9,737,161.4,623.9,161.4,494.2c0-193.2,157.1-350.1,350.6-350.1S862.6,301,862.6,494.2
							c0,129.6-70.6,242.8-175.4,303.3c-27.6,15.9-37,51.2-21.1,78.6c15.9,27.6,51.3,37,78.8,21c139.2-80.5,232.9-230.8,232.9-403
							C977.8,237.5,769.1,29,512,29z"/>
					</g>
					<g>
						<ellipse class="st4" cx="511.8" cy="921.5" rx="75.6" ry="75.5"/>
						<ellipse class="st5" cx="511.8" cy="921.5" rx="75.6" ry="75.5"/>
					</g>
				</g>
			</g>
		</g>
	</g>
</g>
</svg>
