<?xml version="1.0" encoding="utf-8"?>
<!-- Generator: Adobe Illustrator 28.3.0, SVG Export Plug-In . SVG Version: 6.00 Build 0)  -->
<svg version="1.1" id="Layer_1" xmlns:serif="http://www.serif.com/"
	 xmlns="http://www.w3.org/2000/svg" xmlns:xlink="http://www.w3.org/1999/xlink" x="0px" y="0px" viewBox="0 0 1024 1024"
	 style="enable-background:new 0 0 1024 1024;" xml:space="preserve">
<style type="text/css">
	.st0{fill-rule:evenodd;clip-rule:evenodd;fill:#A0A4AA;stroke:#C6C6C6;stroke-miterlimit:10;}
	.st1{fill:none;stroke:#D1D1D1;stroke-width:15;stroke-miterlimit:10;}
	.st2{fill-rule:evenodd;clip-rule:evenodd;stroke:#C6C6C6;stroke-miterlimit:10;}
	.st3{fill-rule:evenodd;clip-rule:evenodd;fill:#243466;stroke:#C6C6C6;stroke-miterlimit:10;}
</style>
<g>
	<g>
		<g>
			<g>
				<g>
					<circle class="st0" cx="511.8" cy="504.4" r="436.3"/>
					<circle class="st1" cx="511.8" cy="504.4" r="436.3"/>
				</g>
				<g>
					<g>
						<path class="st2" d="M781.5,475.6c0-144.2-120.7-259.4-269.5-259.4c-148.9,0-269.6,116.2-269.6,259.4
							c0,31.5,26.6,57.1,59.3,57.1s59.2-25.5,59.2-57.1c0-80.1,67.7-145.3,151-145.3c83.1,0,150.9,64.5,150.9,145.3
							c0,80.7-49.1,100.5-91.7,121.2L571,481.2c0-30.4-26.6-55-59.3-55s-59.3,24.8-59.3,55.1l0.4,266.4c0,1.1,0.1,2.3,0.2,3.4
							c-0.2,3.5-0.3,6.9-0.3,10.6c0,31.5,26.6,57.1,59.3,57.1s59.2-25.5,59.2-57.1c0-27.5,14.2-40.7,31.6-51.2
							c13.3-8,27.9-14.9,42.4-22.6C713.9,652.4,781.5,607.7,781.5,475.6z"/>
						<path class="st1" d="M781.5,475.6c0-144.2-120.7-259.4-269.5-259.4c-148.9,0-269.6,116.2-269.6,259.4
							c0,31.5,26.6,57.1,59.3,57.1s59.2-25.5,59.2-57.1c0-80.1,67.7-145.3,151-145.3c83.1,0,150.9,64.5,150.9,145.3
							c0,80.7-49.1,100.5-91.7,121.2L571,481.2c0-30.4-26.6-55-59.3-55s-59.3,24.8-59.3,55.1l0.4,266.4c0,1.1,0.1,2.3,0.2,3.4
							c-0.2,3.5-0.3,6.9-0.3,10.6c0,31.5,26.6,57.1,59.3,57.1s59.2-25.5,59.2-57.1c0-27.5,14.2-40.7,31.6-51.2
							c13.3-8,27.9-14.9,42.4-22.6C713.9,652.4,781.5,607.7,781.5,475.6z"/>
					</g>
					<g>
						<path class="st3" d="M512,24.4c-264.9,0-479.9,214.8-479.9,479.2c0,177.3,96.5,332.2,239.7,415.2
							c28.4,16.4,64.7,6.7,81.2-21.6c16.4-28.2,6.7-64.6-21.5-81c-108.1-62.4-180.7-178.9-180.7-312.6
							c0-199,161.8-360.7,361.2-360.7s361.2,161.6,361.2,360.7c0,133.5-72.7,250.1-180.7,312.5c-28.4,16.4-38.1,52.7-21.7,81
							c16.4,28.4,52.8,38.1,81.2,21.6c143.4-82.9,239.9-237.8,239.9-415.2C991.9,239.2,776.9,24.4,512,24.4z"/>
						<path class="st1" d="M512,24.4c-264.9,0-479.9,214.8-479.9,479.2c0,177.3,96.5,332.2,239.7,415.2
							c28.4,16.4,64.7,6.7,81.2-21.6c16.4-28.2,6.7-64.6-21.5-81c-108.1-62.4-180.7-178.9-180.7-312.6
							c0-199,161.8-360.7,361.2-360.7s361.2,161.6,361.2,360.7c0,133.5-72.7,250.1-180.7,312.5c-28.4,16.4-38.1,52.7-21.7,81
							c16.4,28.4,52.8,38.1,81.2,21.6c143.4-82.9,239.9-237.8,239.9-415.2C991.9,239.2,776.9,24.4,512,24.4z"/>
					</g>
					<g>
						<ellipse class="st2" cx="511.8" cy="936.6" rx="69.5" ry="69.4"/>
						<ellipse class="st1" cx="511.8" cy="936.6" rx="69.5" ry="69.4"/>
					</g>
				</g>
			</g>
		</g>
	</g>
</g>
</svg>
