<?xml version="1.0" encoding="utf-8"?>
<!-- Generator: Adobe Illustrator 28.3.0, SVG Export Plug-In . SVG Version: 6.00 Build 0)  -->
<svg version="1.1" id="Layer_1" xmlns:serif="http://www.serif.com/"
	 xmlns="http://www.w3.org/2000/svg" xmlns:xlink="http://www.w3.org/1999/xlink" x="0px" y="0px" viewBox="0 0 1024 1024"
	 style="enable-background:new 0 0 1024 1024;" xml:space="preserve">
<style type="text/css">
	.st0{fill-rule:evenodd;clip-rule:evenodd;fill:#A0A4AA;stroke:#C6C6C6;stroke-miterlimit:10;}
	.st1{fill:none;stroke:#D1D1D1;stroke-width:55;stroke-miterlimit:10;}
	.st2{fill-rule:evenodd;clip-rule:evenodd;stroke:#C6C6C6;stroke-width:40;stroke-miterlimit:10;}
	.st3{fill:none;stroke:#D1D1D1;stroke-width:36;stroke-miterlimit:10;}
	.st4{fill-rule:evenodd;clip-rule:evenodd;fill:#243466;}
	.st5{fill:none;}
	.st6{fill-rule:evenodd;clip-rule:evenodd;stroke:#C6C6C6;stroke-miterlimit:10;}
	.st7{fill:none;stroke:#D1D1D1;stroke-width:15;stroke-miterlimit:10;}
</style>
<g>
	<g>
		<g>
			<g>
				<g>
					<circle class="st0" cx="511.8" cy="493.6" r="460.2"/>
					<circle class="st1" cx="511.8" cy="493.6" r="460.2"/>
				</g>
				<g>
					<g>
						<path class="st2" d="M773.6,453.5c0-140-117.2-251.8-261.6-251.8c-144.5,0-261.7,112.8-261.7,251.8
							c0,30.6,25.8,55.4,57.6,55.4c31.7,0,57.5-24.8,57.5-55.4c0-77.8,65.7-141,146.6-141c80.7,0,146.5,62.6,146.5,141
							c0,78.3-47.7,97.6-89,117.6l-0.2-112.2c0-29.5-25.8-53.4-57.6-53.4s-57.6,24.1-57.6,53.5l0.4,258.6c0,1.1,0.1,2.2,0.2,3.3
							c-0.2,3.4-0.3,6.7-0.3,10.3c0,30.6,25.8,55.4,57.6,55.4c31.7,0,57.5-24.8,57.5-55.4c0-26.7,13.8-39.5,30.7-49.7
							c12.9-7.8,27.1-14.5,41.2-21.9C708,625.1,773.6,581.7,773.6,453.5z"/>
						<path class="st3" d="M773.6,453.5c0-140-117.2-251.8-261.6-251.8c-144.5,0-261.7,112.8-261.7,251.8
							c0,30.6,25.8,55.4,57.6,55.4c31.7,0,57.5-24.8,57.5-55.4c0-77.8,65.7-141,146.6-141c80.7,0,146.5,62.6,146.5,141
							c0,78.3-47.7,97.6-89,117.6l-0.2-112.2c0-29.5-25.8-53.4-57.6-53.4s-57.6,24.1-57.6,53.5l0.4,258.6c0,1.1,0.1,2.2,0.2,3.3
							c-0.2,3.4-0.3,6.7-0.3,10.3c0,30.6,25.8,55.4,57.6,55.4c31.7,0,57.5-24.8,57.5-55.4c0-26.7,13.8-39.5,30.7-49.7
							c12.9-7.8,27.1-14.5,41.2-21.9C708,625.1,773.6,581.7,773.6,453.5z"/>
					</g>
					<g>
						<path class="st4" d="M512,29.7c-257.1,0-465.8,208.5-465.8,465.2c0,172.1,93.7,322.5,232.7,403c27.6,15.9,62.8,6.5,78.8-21
							c15.9-27.4,6.5-62.7-20.9-78.6c-104.9-60.6-175.4-173.7-175.4-303.4c0-193.2,157.1-350.1,350.6-350.1s350.6,156.9,350.6,350.1
							c0,129.6-70.6,242.8-175.4,303.3c-27.6,15.9-37,51.2-21.1,78.6c15.9,27.6,51.3,37,78.8,21c139.2-80.5,232.9-230.8,232.9-403
							C977.8,238.2,769.1,29.7,512,29.7z"/>
						<path class="st5" d="M512,27.7c-257.1,0-465.8,208.5-465.8,465.2c0,172.1,93.7,322.5,232.7,403c27.6,15.9,62.8,6.5,78.8-21
							c15.9-27.4,6.5-62.7-20.9-78.6c-104.9-60.6-175.4-173.7-175.4-303.4c0-193.2,157.1-350.1,350.6-350.1s350.6,156.9,350.6,350.1
							c0,129.6-70.6,242.8-175.4,303.3c-27.6,15.9-37,51.2-21.1,78.6c15.9,27.6,51.3,37,78.8,21c139.2-80.5,232.9-230.8,232.9-403
							C977.8,236.2,769.1,27.7,512,27.7z"/>
					</g>
					<g>
						<ellipse class="st6" cx="511.8" cy="922.2" rx="86.2" ry="86.1"/>
						<ellipse class="st7" cx="511.8" cy="922.2" rx="86.2" ry="86.1"/>
					</g>
				</g>
			</g>
		</g>
	</g>
</g>
</svg>
